
<svg width="76px" height="36px" viewBox="0 0 76 36" version="1.1" xmlns="http://www.w3.org/2000/svg" xmlns:xlink="http://www.w3.org/1999/xlink">
    <!-- Generator: Sketch 48.2 (47327) - http://www.bohemiancoding.com/sketch -->
    <desc>Created with Sketch.</desc>
    <defs></defs>
    <g id="Page-1" stroke="none" stroke-width="1" fill="none" fill-rule="evenodd">
        <path d="M70.0688258,16.4472387 C69.7618839,16.8422217 69.4549437,17.2338065 69.148,17.622 C68.739998,18.1380026 68.3440019,18.6719972 67.96,19.224 C67.8399994,19.3920008 67.7320005,19.5479993 67.636,19.692 C67.5399995,19.8360007 67.4440005,19.9919992 67.348,20.16 C67.0839987,20.4960017 66.7960016,20.8739979 66.484,21.294 C66.1719984,21.7140021 65.8480017,22.0919983 65.512,22.428 C65.0559977,22.8600022 64.7140011,23.0819999 64.486,23.094 C64.2579989,23.1060001 64.0840006,23.0520006 63.964,22.932 C63.8439994,22.8359995 63.7720001,22.692001 63.748,22.5 C63.6999998,22.3319992 63.676,22.1700008 63.676,22.014 L63.676,21.528 C63.7000001,21.0479976 63.7359998,20.5860022 63.784,20.142 C63.8320002,19.6979978 63.8919996,19.2480023 63.964,18.792 L64.072,17.928 L64,18.072 C63.6159981,18.6480029 63.2320019,19.2719966 62.848,19.944 C62.7999998,19.9920002 62.7520002,20.0639995 62.704,20.16 C62.5839994,20.4240013 62.4160011,20.5919996 62.2,20.664 C61.9839989,20.7360004 61.7440013,20.7480002 61.48,20.7 C61.2159987,20.6759999 61.0959999,20.5200014 61.12,20.232 C61.1680002,19.9679987 61.2159998,19.7220011 61.264,19.494 C61.3120002,19.2659989 61.3599998,19.0200013 61.408,18.756 C61.4320001,18.5399989 61.4919995,18.2760016 61.588,17.964 C61.6552632,17.7173684 61.7591801,17.3450668 61.8997537,16.8470853 C61.4492986,17.2343142 61.0093826,17.6426174 60.58,18.072 L58.672,19.98 C58.6239998,20.0280002 58.5280007,20.1119994 58.384,20.232 C58.2399993,20.3520006 58.0780009,20.4599995 57.898,20.556 C57.7179991,20.6520005 57.526001,20.7239998 57.322,20.772 C57.117999,20.8200002 56.9440007,20.7960005 56.8,20.7 C56.5599988,20.5559993 56.3860005,20.3700011 56.278,20.142 C56.1699995,19.9139989 56.1100001,19.6680013 56.098,19.404 C56.0859999,19.1399987 56.1039998,18.8700014 56.152,18.594 C56.1845239,18.4069878 56.2170474,18.2337507 56.249571,18.0742863 L56.116,18.288 L55.684,18.972 L55.288,19.656 C54.9759984,20.1360024 54.6640016,20.5679981 54.352,20.952 C54.0879987,21.2880017 53.8060015,21.5879987 53.506,21.852 C53.2059985,22.1160013 52.9360012,22.2240002 52.696,22.176 L52.552,22.176 C52.5279999,22.1519999 52.5040001,22.14 52.48,22.14 C52.287999,22.0439995 52.1680002,21.9480005 52.12,21.852 C51.9999994,21.6839992 51.9459999,21.4080019 51.958,21.024 C51.9700001,20.6399981 52.0119996,20.250002 52.084,19.854 C52.1560004,19.457998 52.2399995,19.0920017 52.336,18.756 C52.4320005,18.4199983 52.4919999,18.2040005 52.516,18.108 L52.516,18.072 C52.4679998,18.1200002 52.4320001,18.1679998 52.408,18.216 C52.1679988,18.4560012 51.9400011,18.6959988 51.724,18.936 C51.5079989,19.1760012 51.2920011,19.4279987 51.076,19.692 C50.9799995,19.7880005 50.8900004,19.8839995 50.806,19.98 C50.7219996,20.0760005 50.6200006,20.1599996 50.5,20.232 C50.307999,20.4000008 50.0740014,20.484 49.798,20.484 C49.5219986,20.484 49.288001,20.4120007 49.096,20.268 C48.9519993,20.1479994 48.8440004,20.0280006 48.772,19.908 C48.6279993,19.6439987 48.5799998,19.3560016 48.628,19.044 C48.7000004,18.0599951 48.933998,17.166004 49.33,16.362 C49.726002,15.557996 50.2359969,14.8080035 50.86,14.112 C51.1000012,13.8239986 51.3879983,13.5720011 51.724,13.356 C51.8920008,13.2599995 52.0659991,13.1820003 52.246,13.122 C52.4260009,13.0619997 52.611999,13.0439999 52.804,13.068 C53.4520032,13.1400004 53.7999998,13.5119966 53.848,14.184 C53.848,14.6400023 53.7280012,15.1079976 53.488,15.588 C53.4639999,15.6360002 53.4460001,15.6779998 53.434,15.714 C53.4219999,15.7500002 53.4040001,15.7919998 53.38,15.84 L53.416,15.876 C53.4880004,15.7559994 53.5599996,15.6420005 53.632,15.534 C53.7040004,15.4259995 53.7639998,15.3120006 53.812,15.192 C53.9080005,14.999999 54.0639989,14.904 54.28,14.904 C54.3280002,14.9280001 54.3879996,14.94 54.46,14.94 C54.8440019,15.0360005 54.9880005,15.2759981 54.892,15.66 C54.8439998,15.852001 54.7900003,16.0379991 54.73,16.218 C54.6699997,16.3980009 54.6040004,16.583999 54.532,16.776 C54.4599996,17.0160012 54.3820004,17.2439989 54.298,17.46 C54.2139996,17.6760011 54.1360004,17.8919989 54.064,18.108 L54.028,18.18 C54.0039999,18.2520004 53.9860001,18.3299996 53.974,18.414 C53.9619999,18.4980004 53.9320002,18.5759996 53.884,18.648 C53.7639994,18.9840017 53.6740003,19.2959986 53.614,19.584 C53.5539997,19.8720014 53.5000002,20.1359988 53.452,20.376 C53.3799996,20.6400013 53.3320001,20.8919988 53.308,21.132 C53.3800004,21.0839998 53.4939992,20.958001 53.65,20.754 C53.8060008,20.549999 53.979999,20.3280012 54.172,20.088 L54.82,19.152 L56.008,17.352 C56.1280006,17.159999 56.2539993,16.9740009 56.386,16.794 C56.4830043,16.6617213 56.5767674,16.5262039 56.6672906,16.3874455 C56.7800628,15.9918079 56.9202982,15.6053291 57.088,15.228 C57.280001,14.7959978 57.5139986,14.4000018 57.79,14.04 C58.0660014,13.6799982 58.3839982,13.3920011 58.744,13.176 C58.9840012,13.0319993 59.2719983,13.0319993 59.608,13.176 C59.7520007,13.2240002 59.8419998,13.3139993 59.878,13.446 C59.9140002,13.5780007 59.9140002,13.7279992 59.878,13.896 C59.8419998,14.0640008 59.7940003,14.2259992 59.734,14.382 C59.6739997,14.5380008 59.6320001,14.6639995 59.608,14.76 C59.5119995,14.9040007 59.3800008,14.9040007 59.212,14.76 C59.1159995,14.6879996 59.0799999,14.6040005 59.104,14.508 C59.1280001,14.4119995 59.1639998,14.3280004 59.212,14.256 C59.2600002,14.1839996 59.2720001,14.0880006 59.248,13.968 C59.055999,14.2080012 58.8400012,14.6099972 58.6,15.174 C58.3599988,15.7380028 58.138001,16.3379968 57.934,16.974 C57.729999,17.6100032 57.5800005,18.2159971 57.484,18.792 C57.3879995,19.3680029 57.3759996,19.7759988 57.448,20.016 C57.7120013,19.823999 57.945999,19.6200011 58.15,19.404 C58.354001,19.1879989 58.5879987,18.984001 58.852,18.792 C59.260002,18.4319982 59.661998,18.0720018 60.058,17.712 C60.454002,17.3519982 60.8679978,16.9920018 61.3,16.632 C61.4200006,16.5359995 61.5519993,16.4280006 61.696,16.308 C61.8145243,16.2092298 61.9736944,16.0698135 62.1735138,15.889748 C62.2617037,15.5855358 62.3545322,15.2689539 62.452,14.94 C62.644001,14.2919968 62.8479989,13.6440032 63.064,12.996 C63.2800011,12.3479968 63.4599993,11.7840024 63.604,11.304 C63.6520002,11.2079995 63.6819999,11.1180004 63.694,11.034 C63.7060001,10.9499996 63.7239999,10.8840002 63.748,10.836 C63.7720001,10.7639996 63.7959999,10.7040002 63.82,10.656 L64,10.044 L64.072,9.864 C64.2160007,9.3839976 64.3659992,8.91000234 64.522,8.442 C64.6780008,7.97399766 64.8399992,7.5000024 65.008,7.02 C65.3440017,6.01199496 65.6859983,4.9980051 66.034,3.978 C66.3820017,2.9579949 66.7239983,1.93200516 67.06,0.9 C67.0840001,0.82799964 67.1079999,0.7620003 67.132,0.702 C67.1560001,0.6419997 67.1799999,0.57600036 67.204,0.504 C67.2760004,0.3839994 67.3599995,0.33599988 67.456,0.36 C67.7200013,0.43200036 67.8400001,0.5879988 67.816,0.828 C67.7679998,1.09200132 67.7260002,1.33799886 67.69,1.566 C67.6539998,1.79400114 67.6000004,2.0279988 67.528,2.268 C67.2639987,3.27600504 66.9880014,4.2599952 66.7,5.22 C66.4119986,6.1800048 66.1120016,7.16399496 65.8,8.172 C65.6799994,8.58000204 65.5720005,8.96999814 65.476,9.342 C65.3799995,9.71400186 65.2720006,10.103998 65.152,10.512 C65.1039998,10.6320006 65.0440004,10.8359986 64.972,11.124 C64.8999996,11.4120014 64.8100005,11.7419981 64.702,12.114 C64.5939995,12.4860019 64.4800006,12.875998 64.36,13.284 C64.2399994,13.692002 64.1320005,14.0639983 64.036,14.4 L63.748,15.48 C63.6519995,15.8160017 63.5620004,16.1579983 63.478,16.506 C63.3939996,16.8540017 63.2920006,17.1959983 63.172,17.532 L63.172,17.64 L63.208,17.64 C63.3040005,17.5199994 63.3939996,17.4060005 63.478,17.298 C63.5620004,17.1899995 63.6399996,17.0760006 63.712,16.956 C64.1680023,16.355997 64.6179978,15.7620029 65.062,15.174 C65.5060022,14.5859971 65.9559977,14.0040029 66.412,13.428 C66.5320006,13.2839993 66.6459995,13.1400007 66.754,12.996 C66.8620005,12.8519993 66.9759994,12.7200006 67.096,12.6 C67.3120011,12.3839989 67.5519987,12.3239995 67.816,12.42 C67.9840008,12.5400006 67.9840008,12.6479995 67.816,12.744 L67.69,12.87 C67.6539998,12.9060002 67.6240001,12.9479998 67.6,12.996 C67.2639983,13.4280022 66.9400016,13.8659978 66.628,14.31 C66.3159984,14.7540022 65.9920017,15.1919978 65.656,15.624 C65.5119993,15.7920008 65.3800006,15.9839989 65.26,16.2 C65.2359999,16.2 65.224,16.2119999 65.224,16.236 C65.1759998,16.2840002 65.152,16.3199999 65.152,16.344 C65.2240004,16.5120008 65.2360002,16.7159988 65.188,16.956 C65.1639999,17.364002 65.1400001,17.7839978 65.116,18.216 C65.0919999,18.6480022 65.0560002,19.0919977 65.008,19.548 C64.9839999,19.9320019 64.9660001,20.3159981 64.954,20.7 C64.9419999,21.0840019 64.9240001,21.479998 64.9,21.888 L64.9,22.14 L67.96,18.144 L68.14,17.892 L69.328,16.38 C69.4588725,16.2273155 69.5996547,16.0845446 69.7503504,15.9516839 C69.7153975,15.8904561 69.6826141,15.8292283 69.652,15.768 C69.5079993,15.5279988 69.436,15.2640014 69.436,14.976 C69.436,14.6879986 69.531999,14.4120013 69.724,14.148 C70.1560022,13.5239969 70.7439963,13.1760004 71.488,13.104 C71.680001,13.0799999 71.8839989,13.0859998 72.1,13.122 C72.3160011,13.1580002 72.519999,13.2299995 72.712,13.338 C72.904001,13.4460005 73.0719993,13.595999 73.216,13.788 C73.3600007,13.980001 73.4439999,14.2079987 73.468,14.472 C73.4920001,14.7360013 73.4440006,15.0599981 73.324,15.444 C73.0839988,15.9720026 72.760002,16.3679987 72.352,16.632 C72.1839992,16.7760007 72.004001,16.7640008 71.812,16.596 C71.8360001,16.5719999 71.848,16.5540001 71.848,16.542 C71.848,16.5299999 71.8599999,16.5120001 71.884,16.488 C72.3400023,15.9119971 72.5919998,15.2400038 72.64,14.472 C72.64,14.1599984 72.544001,13.9200008 72.352,13.752 C72.2799996,13.6319994 72.1600008,13.5959998 71.992,13.644 L71.776,13.752 C71.367998,13.9680011 71.0560011,14.2679981 70.84,14.652 C70.6719992,15.0120018 70.6599993,15.3479984 70.804,15.66 C70.8520002,15.7320004 70.8939998,15.8099996 70.93,15.894 C70.9660002,15.9780004 71.0079998,16.0679995 71.056,16.164 C71.1520005,16.3080007 71.2419996,16.4459993 71.326,16.578 C71.4100004,16.7100007 71.4999995,16.8479993 71.596,16.992 C71.6440002,17.0400002 71.6859998,17.0999996 71.722,17.172 C71.7580002,17.2440004 71.7999998,17.3039998 71.848,17.352 L71.848,17.388 C71.8720001,17.4120001 71.9199996,17.4899993 71.992,17.622 C72.0640004,17.7540007 72.1479995,17.915999 72.244,18.108 C72.2680001,18.0839999 72.2919999,18.0660001 72.316,18.054 C72.3400001,18.0419999 72.3639999,18.0240001 72.388,18 L72.424,17.964 C72.7840018,17.6999987 73.1439982,17.4420013 73.504,17.19 C73.8640018,16.9379987 74.2119983,16.6800013 74.548,16.416 C74.6920007,16.3199995 74.8359993,16.2300004 74.98,16.146 C75.1240007,16.0619996 75.2559994,15.9720005 75.376,15.876 C75.4720005,15.8039996 75.5919993,15.768 75.736,15.768 L75.808,15.768 C75.8560002,15.8160002 75.88,15.8519999 75.88,15.876 C75.88,15.9240002 75.8560002,15.9719998 75.808,16.02 L72.388,18.612 L72.46,18.9 C72.4840001,18.9960005 72.496,19.1159993 72.496,19.26 L72.496,19.332 C72.4479998,19.6920018 72.3400008,20.0519982 72.172,20.412 C71.979999,20.7480017 71.7640012,21.0719984 71.524,21.384 C71.0919978,21.9120026 70.6120026,22.3919978 70.084,22.824 C69.7239982,23.0880013 69.3700017,23.3099991 69.022,23.49 C68.6739983,23.6700009 68.3560014,23.7959996 68.068,23.868 C67.7799986,23.9400004 67.5280011,23.976 67.312,23.976 C67.0959989,23.976 66.9520004,23.9280005 66.88,23.832 C66.7599994,23.6879993 66.7419996,23.5080011 66.826,23.292 C66.9100004,23.0759989 66.9879996,22.9080006 67.06,22.788 C67.3960017,22.3319977 67.7979977,21.8700023 68.266,21.402 L69.4,20.268 C69.6640013,20.0519989 69.9279987,19.842001 70.192,19.638 C70.4560013,19.433999 70.7079988,19.236001 70.948,19.044 C70.9960002,18.9959998 71.0319999,18.9660001 71.056,18.954 C71.0800001,18.9419999 71.1159998,18.9120002 71.164,18.864 C71.1399999,18.6479989 71.0980003,18.438001 71.038,18.234 C70.9779997,18.029999 70.9120004,17.8440008 70.84,17.676 C70.7439995,17.483999 70.6360006,17.3160007 70.516,17.172 L70.192,16.632 L70.0688258,16.4472387 Z M32.3839757,17.3483206 C32.2324639,17.5702081 32.0671389,17.8114344 31.888,18.072 C31.3599974,18.8400038 30.8140028,19.5899963 30.25,20.322 C29.6859972,21.0540037 29.1460026,21.6959972 28.63,22.248 C28.1139974,22.8000028 27.7360012,23.076 27.496,23.076 L27.388,23.04 C27.1719989,22.9919998 27.0340003,22.8540011 26.974,22.626 C26.9139997,22.3979989 26.884,22.2600002 26.884,22.212 C26.884,21.8519982 26.9199996,21.4080026 26.992,20.88 C27.0640004,20.3519974 27.1539995,19.8180027 27.262,19.278 C27.345897,18.8585149 27.4370344,18.4498966 27.5354138,18.0521379 L27.388,18.288 L26.956,18.972 L26.56,19.656 C26.2479984,20.1360024 25.9360016,20.5679981 25.624,20.952 C25.3599987,21.2880017 25.0780015,21.5879987 24.778,21.852 C24.4779985,22.1160013 24.2080012,22.2240002 23.968,22.176 L23.824,22.176 C23.7999999,22.1519999 23.7760001,22.14 23.752,22.14 C23.559999,22.0439995 23.4400002,21.9480005 23.392,21.852 C23.2719994,21.6839992 23.2179999,21.4080019 23.23,21.024 C23.2420001,20.6399981 23.2839996,20.250002 23.356,19.854 C23.4280004,19.457998 23.5119995,19.0920017 23.608,18.756 C23.7040005,18.4199983 23.7639999,18.2040005 23.788,18.108 L23.788,18.072 C23.7399998,18.1200002 23.7040001,18.1679998 23.68,18.216 C23.4399988,18.4560012 23.2120011,18.6959988 22.996,18.936 C22.7799989,19.1760012 22.5640011,19.4279987 22.348,19.692 C22.2519995,19.7880005 22.1620004,19.8839995 22.078,19.98 C21.9939996,20.0760005 21.8920006,20.1599996 21.772,20.232 C21.579999,20.4000008 21.3460014,20.484 21.07,20.484 C20.7939986,20.484 20.560001,20.4120007 20.368,20.268 C20.2239993,20.1479994 20.1160004,20.0280006 20.044,19.908 C19.8999993,19.6439987 19.8519998,19.3560016 19.9,19.044 C19.9720004,18.0599951 20.205998,17.166004 20.602,16.362 C20.998002,15.557996 21.5079969,14.8080035 22.132,14.112 C22.3720012,13.8239986 22.6599983,13.5720011 22.996,13.356 C23.1640008,13.2599995 23.3379991,13.1820003 23.518,13.122 C23.6980009,13.0619997 23.883999,13.0439999 24.076,13.068 C24.7240032,13.1400004 25.0719998,13.5119966 25.12,14.184 C25.12,14.6400023 25.0000012,15.1079976 24.76,15.588 C24.7359999,15.6360002 24.7180001,15.6779998 24.706,15.714 C24.6939999,15.7500002 24.6760001,15.7919998 24.652,15.84 L24.688,15.876 C24.7600004,15.7559994 24.8319996,15.6420005 24.904,15.534 C24.9760004,15.4259995 25.0359998,15.3120006 25.084,15.192 C25.1800005,14.999999 25.3359989,14.904 25.552,14.904 C25.6000002,14.9280001 25.6599996,14.94 25.732,14.94 C26.1160019,15.0360005 26.2600005,15.2759981 26.164,15.66 C26.1159998,15.852001 26.0620003,16.0379991 26.002,16.218 C25.9419997,16.3980009 25.8760004,16.583999 25.804,16.776 C25.7319996,17.0160012 25.6540004,17.2439989 25.57,17.46 C25.4859996,17.6760011 25.4080004,17.8919989 25.336,18.108 L25.3,18.18 C25.2759999,18.2520004 25.2580001,18.3299996 25.246,18.414 C25.2339999,18.4980004 25.2040002,18.5759996 25.156,18.648 C25.0359994,18.9840017 24.9460003,19.2959986 24.886,19.584 C24.8259997,19.8720014 24.7720002,20.1359988 24.724,20.376 C24.6519996,20.6400013 24.6040001,20.8919988 24.58,21.132 C24.6520004,21.0839998 24.7659992,20.958001 24.922,20.754 C25.0780008,20.549999 25.251999,20.3280012 25.444,20.088 L26.092,19.152 L27.28,17.352 C27.4000006,17.159999 27.5259993,16.9740009 27.658,16.794 C27.7762907,16.6326945 27.8897615,16.4665728 27.9984151,16.2956309 C28.3229448,15.16136 28.64747,14.0494934 28.972,12.96 C29.3080017,11.8319944 29.6199986,10.8060046 29.908,9.882 C30.1960014,8.95799538 30.435999,8.17200324 30.628,7.524 C30.820001,6.87599676 30.9519996,6.44400108 31.024,6.228 L30.484,6.264 C30.4119996,6.28800012 30.2920008,6.3 30.124,6.3 C29.9799993,6.32400012 29.8360007,6.34199994 29.692,6.354 C29.5479993,6.36600006 29.3920008,6.38399988 29.224,6.408 C28.8279982,6.49200024 28.4680018,6.52799988 28.108,6.552 C27.7479982,6.57600012 27.4000017,6.61199976 27.064,6.66 C26.6079977,6.70800024 26.1640022,6.75599976 25.732,6.804 L24.436,6.948 C24.0519981,6.99600024 23.6740019,7.03799982 23.302,7.074 C22.9299981,7.11000018 22.5520019,7.15199976 22.168,7.2 L21.8120554,7.2309517 C21.4396741,8.23295885 21.0903246,9.24263517 20.764,10.26 C20.355998,11.5320064 19.948002,12.8159935 19.54,14.112 C18.6519956,16.920014 17.8240038,19.7399858 17.056,22.572 C16.2879962,25.4040142 15.5800032,28.2719855 14.932,31.176 C14.8119994,31.7520029 14.6920006,32.3339971 14.572,32.922 C14.4519994,33.5100029 14.3440005,34.103997 14.248,34.704 C14.248,34.7760004 14.2420001,34.8479996 14.23,34.92 C14.2179999,34.9920004 14.212,35.0639996 14.212,35.136 C14.2600002,35.328001 14.2000008,35.4599996 14.032,35.532 C13.7439986,35.6760007 13.4440016,35.6760007 13.132,35.532 C12.9879993,35.4599996 12.916,35.3400008 12.916,35.172 L12.916,34.74 C12.916,34.5959993 12.9279999,34.4520007 12.952,34.308 C13.0240004,33.707997 13.1199994,33.1200029 13.24,32.544 L13.6,30.816 C14.800006,25.2959724 16.1319927,19.8720266 17.596,14.544 C18.0760024,12.7679911 18.615997,11.0220086 19.216,9.306 C19.4394049,8.66706197 19.6694631,8.03062296 19.9061755,7.39668031 L19.684,7.416 C19.5879995,7.416 19.444001,7.39200024 19.252,7.344 C19.1079993,7.29599976 19.036,7.2120006 19.036,7.092 C19.0600001,7.01999964 19.1319994,6.984 19.252,6.984 C19.4920012,7.03200024 19.7199989,7.04400012 19.936,7.02 C19.9744767,7.01572481 20.013334,7.01144964 20.0525721,7.00717447 C20.4071229,6.06998008 20.7762645,5.1382581 21.16,4.212 C21.1840001,4.16399976 21.196,4.10400036 21.196,4.032 L21.088,4.14 C20.2479958,5.29200576 19.4200041,6.43199436 18.604,7.56 C17.7879959,8.68800564 16.9960038,9.851994 16.228,11.052 C15.5079964,12.1320054 14.7940035,13.2059947 14.086,14.274 C13.3779965,15.3420053 12.6760035,16.4399944 11.98,17.568 C11.4519974,18.4560044 10.9480024,19.3499955 10.468,20.25 C9.9879976,21.1500045 9.5080024,22.0559954 9.028,22.968 C8.83599904,23.376002 8.59600144,23.7959978 8.308,24.228 C8.21199952,24.3720007 8.14000024,24.4679998 8.092,24.516 C7.77999844,24.8760018 7.40800216,24.960001 6.976,24.768 C6.78399904,24.6479994 6.67600012,24.4680012 6.652,24.228 C6.652,24.0119989 6.66399988,23.7960011 6.688,23.58 C6.71200012,23.3639989 6.74799976,23.1480011 6.796,22.932 C6.96400084,21.9719952 7.15599892,21.0240047 7.372,20.088 C7.58800108,19.1519953 7.82799868,18.2160047 8.092,17.28 C8.62000264,15.2159897 9.17799706,13.18201 9.766,11.178 C10.3540029,9.17398998 10.9959965,7.16401008 11.692,5.148 C11.7220001,5.05199988 11.728,5.01600024 11.728,4.968 C11.499999,5.25600144 11.3440006,5.53199868 11.224,5.796 C9.3039904,9.22801716 7.46800876,12.6839826 5.716,16.164 C5.09199688,17.4120062 4.50400276,18.6599938 3.952,19.908 C3.39999724,21.1560062 2.8840024,22.4399934 2.404,23.76 C2.23599916,24.1920022 2.07400078,24.6299978 1.918,25.074 C1.76199922,25.5180022 1.60000084,25.9679977 1.432,26.424 L1.216,26.964 C1.14399964,27.1800011 1.01200096,27.2999999 0.82,27.324 C0.60399892,27.3720002 0.42400072,27.3480005 0.28,27.252 C0.13599928,27.1799996 0.07599988,27.0720007 0.1,26.928 C0.12400012,26.7839993 0.14199994,26.6340008 0.154,26.478 C0.16600006,26.3219992 0.19599976,26.1720007 0.244,26.028 C0.50800132,24.7079934 0.80199838,23.3940065 1.126,22.086 C1.45000162,20.7779935 1.77999832,19.4640066 2.116,18.144 C2.69200288,15.9599891 3.29799682,13.7880108 3.934,11.628 C4.57000318,9.4679892 5.23599652,7.32001068 5.932,5.184 C6.12400096,4.63199724 6.32199898,4.0860027 6.526,3.546 C6.73000102,3.0059973 6.92799904,2.46000276 7.12,1.908 C7.19200036,1.6679988 7.26999958,1.43400114 7.354,1.206 C7.43800042,0.97799886 7.51599964,0.75600108 7.588,0.54 C7.68400048,0.2999988 7.82799904,0.22799952 8.02,0.324 C8.33200156,0.4440006 8.45200036,0.69599808 8.38,1.08 L8.164,1.944 C8.09199964,2.23200144 8.00800048,2.51999856 7.912,2.808 C7.35999724,4.65600924 6.8140027,6.49199088 6.274,8.316 C5.7339973,10.1400091 5.2240024,11.9879906 4.744,13.86 L3.124,19.8 C3.09399994,19.8960001 3.09999988,19.9319998 3.124,19.98 C3.124,19.9559999 3.14799976,19.9200002 3.196,19.872 C3.82000312,18.479993 4.47999652,17.1180067 5.176,15.786 C5.87200348,14.4539933 6.5799964,13.1160067 7.3,11.772 C8.1400042,10.2119922 8.97399586,8.67000762 9.802,7.146 C10.6300041,5.62199238 11.4639958,4.0800078 12.304,2.52 L13.168,0.936 C13.2160002,0.88799976 13.2639998,0.81600048 13.312,0.72 C13.4080005,0.5999994 13.5279993,0.56399976 13.672,0.612 C13.8400008,0.70800048 13.9719995,0.82199934 14.068,0.954 C14.1640005,1.08600066 14.1760004,1.28399868 14.104,1.548 C14.0559998,1.74000096 14.0020003,1.91999916 13.942,2.088 C13.8819997,2.25600084 13.8280002,2.42399916 13.78,2.592 C12.9639959,4.94401176 12.2140034,7.30198818 11.53,9.666 C10.8459966,12.0300118 10.1800032,14.4239879 9.532,16.848 C9.26799868,17.8320049 9.01000126,18.8099951 8.758,19.782 C8.50599874,20.7540049 8.27200108,21.743995 8.056,22.752 C8.03199988,22.8000002 8.03199988,22.8719995 8.056,22.968 C8.08000012,22.9199998 8.10399988,22.8780002 8.128,22.842 C8.15200012,22.8059998 8.17599988,22.7640002 8.2,22.716 C8.5600018,22.0679968 8.91399826,21.4200032 9.262,20.772 C9.61000174,20.1239968 9.97599808,19.4880031 10.36,18.864 C11.1280038,17.4959932 11.9379957,16.1760064 12.79,14.904 C13.6420043,13.6319936 14.4999957,12.3600064 15.364,11.088 C16.372005,9.6479928 17.3679951,8.21400714 18.352,6.786 C19.3360049,5.35799286 20.331995,3.9240072 21.34,2.484 C21.532001,2.21999868 21.723999,1.94400144 21.916,1.656 L22.492,0.792 C22.5400002,0.71999964 22.5999996,0.64800036 22.672,0.576 C22.7440004,0.50399964 22.8039998,0.43200036 22.852,0.36 C22.9720006,0.21599928 23.1399989,0.19199952 23.356,0.288 C23.5000007,0.4080006 23.6319994,0.56999898 23.752,0.774 C23.8720006,0.97800102 23.8960004,1.24799832 23.824,1.584 C23.7759998,1.8240012 23.7160004,2.0639988 23.644,2.304 L23.428,3.024 C23.2119989,3.60000288 22.9900011,4.17599712 22.762,4.752 C22.5339989,5.32800288 22.3120011,5.90399712 22.096,6.48 C22.0572981,6.58062498 22.0188302,6.68132786 21.9805965,6.78210864 C22.0130381,6.7774581 22.045506,6.77275523 22.078,6.768 C22.5700025,6.69599964 23.0679975,6.63600024 23.572,6.588 C24.0520024,6.53999976 24.5439975,6.4860003 25.048,6.426 C25.5520025,6.3659997 26.0439976,6.30000036 26.524,6.228 C26.9560022,6.17999976 27.3939978,6.13200024 27.838,6.084 C28.2820022,6.03599976 28.7199978,5.98800024 29.152,5.94 C29.2720006,5.91599988 29.3979993,5.904 29.53,5.904 C29.6620007,5.904 29.7999993,5.89200012 29.944,5.868 C29.9680001,5.868 30.0999988,5.85600012 30.34,5.832 C30.5800012,5.80799988 30.8679983,5.77200024 31.204,5.724 L32.824,0.972 C32.8480001,0.82799928 32.8959996,0.6960006 32.968,0.576 C33.0160002,0.43199928 33.0999994,0.39599964 33.22,0.468 C33.3400006,0.49200012 33.4359996,0.53999964 33.508,0.612 C33.5800004,0.68400036 33.5920002,0.7799994 33.544,0.9 C33.4959998,1.16400132 33.4540002,1.40999886 33.418,1.638 C33.3819998,1.86600114 33.3400002,2.0999988 33.292,2.34 L32.32,5.58 C32.7760023,5.53199976 33.1839982,5.49000018 33.544,5.454 C33.9040018,5.41799982 34.1319995,5.4 34.228,5.4 C34.4920013,5.35199976 34.7619986,5.31600012 35.038,5.292 C35.3140014,5.26799988 35.5839987,5.24400012 35.848,5.22 C35.8789261,5.21587651 35.909808,5.21184159 35.9406455,5.20789523 C36.0859611,4.65993006 36.2590783,4.11196816 36.46,3.564 C36.5320004,3.3239988 36.6099996,3.09000114 36.694,2.862 C36.7780004,2.63399886 36.8559996,2.4000012 36.928,2.16 C37.0960008,1.70399772 37.2519993,1.2360024 37.396,0.756 C37.4200001,0.70799976 37.4379999,0.64800036 37.45,0.576 C37.4620001,0.50399964 37.4919998,0.44400024 37.54,0.396 C37.5880002,0.29999952 37.6599995,0.27599976 37.756,0.324 C37.8760006,0.37200024 37.9719996,0.44399952 38.044,0.54 C38.1160004,0.63600048 38.1280002,0.75599928 38.08,0.9 C38.0319998,1.16400132 37.9900002,1.4159988 37.954,1.656 C37.9179998,1.8960012 37.8640004,2.1359988 37.792,2.376 C37.5370292,3.27998737 37.2764656,4.18955813 37.0103019,5.10473774 C37.3237696,5.08095997 37.6323331,5.04738099 37.936,5.004 C38.2240014,4.95599976 38.5059986,4.92600006 38.782,4.914 C39.0580014,4.90199994 39.3399986,4.88400012 39.628,4.86 C39.9640017,4.81199976 40.2879984,4.78200006 40.6,4.77 C40.9120016,4.75799994 41.2239984,4.74000012 41.536,4.716 L42.868,4.716 C43.0840011,4.716 43.2279996,4.81199904 43.3,5.004 C43.2279996,5.07600036 43.1560004,5.112 43.084,5.112 L42.904,5.112 C42.6639988,5.13600012 42.4360011,5.148 42.22,5.148 C42.0039989,5.148 41.7760012,5.15999988 41.536,5.184 C40.9599971,5.23200024 40.3780029,5.27999976 39.79,5.328 C39.2019971,5.37600024 38.6200029,5.42399976 38.044,5.472 C37.6531638,5.50598575 37.2623318,5.54297898 36.871498,5.58298026 C36.6338302,6.40548714 36.4006659,7.23248752 36.172,8.064 C36.1239998,8.20800072 36.0580004,8.4299985 35.974,8.73 C35.8899996,9.0300015 35.7940005,9.3899979 35.686,9.81 C35.5779995,10.2300021 35.4580007,10.6799976 35.326,11.16 C35.1939993,11.6400024 35.0560007,12.1199976 34.912,12.6 C34.5999984,13.7520058 34.2640018,14.9999933 33.904,16.344 C33.9520002,16.3199999 33.9999998,16.2600005 34.048,16.164 C34.2880012,15.8279983 34.5219989,15.5100015 34.75,15.21 C34.9780011,14.9099985 35.2239987,14.6160014 35.488,14.328 C35.6560008,14.1599992 35.7879995,14.0400004 35.884,13.968 C36.1480013,13.7279988 36.483998,13.7279988 36.892,13.968 C37.1560013,14.1360008 37.3239996,14.3879983 37.396,14.724 C37.4200001,14.916001 37.4200001,15.0899992 37.396,15.246 C37.3719999,15.4020008 37.3480001,15.5519993 37.324,15.696 C37.2279995,16.104002 37.1140007,16.4999981 36.982,16.884 C36.8499993,17.2680019 36.7240006,17.663998 36.604,18.072 C36.5799999,18.1200002 36.5620001,18.1799996 36.55,18.252 C36.5379999,18.3240004 36.5200001,18.3839998 36.496,18.432 C36.4479998,18.624001 36.3880004,18.8279989 36.316,19.044 C36.2439996,19.2600011 36.1720004,19.4999987 36.1,19.764 C36.1720004,19.6919996 36.2379997,19.6200004 36.298,19.548 C36.3580003,19.4759996 36.4239996,19.4160002 36.496,19.368 C36.6640008,19.175999 36.8259992,18.984001 36.982,18.792 C37.1380008,18.599999 37.2999992,18.408001 37.468,18.216 L39.52,15.84 C39.6400006,15.7199994 39.7599994,15.7259993 39.88,15.858 C40.0000006,15.9900007 40.0000006,16.1159994 39.88,16.236 C39.4959981,16.6920023 39.1180019,17.1359978 38.746,17.568 C38.3739981,18.0000022 37.9960019,18.4439977 37.612,18.9 C37.419999,19.1160011 37.2340009,19.3319989 37.054,19.548 C36.8739991,19.7640011 36.688001,19.967999 36.496,20.16 L36.388,20.268 C36.2679994,20.3880006 36.0940011,20.5319992 35.866,20.7 C35.6379989,20.8680008 35.4160011,20.8920006 35.2,20.772 C35.0799994,20.6999996 35.0020002,20.5860008 34.966,20.43 C34.9299998,20.2739992 34.912,20.1120008 34.912,19.944 C34.912,19.7759992 34.9299998,19.6140008 34.966,19.458 C35.0020002,19.3019992 35.0319999,19.1760005 35.056,19.08 C35.1040002,18.887999 35.1399999,18.7560004 35.164,18.684 L35.164,18.612 C35.1880001,18.4679993 35.2359996,18.3360006 35.308,18.216 C35.4280006,17.7599977 35.5599993,17.3040023 35.704,16.848 L36.136,15.48 C36.1600001,15.3599994 36.1779999,15.2460005 36.19,15.138 C36.2020001,15.0299995 36.208,14.9160006 36.208,14.796 C35.7519977,15.2760024 35.3380019,15.7859973 34.966,16.326 C34.5939981,16.8660027 34.2760013,17.3879975 34.012,17.892 C33.7479987,18.3960025 33.520001,18.8579979 33.328,19.278 C33.135999,19.6980021 32.9920005,20.0519986 32.896,20.34 C32.8479998,20.4600006 32.7460008,20.5979992 32.59,20.754 C32.4339992,20.9100008 32.2240013,20.9280006 31.96,20.808 C31.7199988,20.7119995 31.6,20.562001 31.6,20.358 C31.6,20.153999 31.6239998,20.0160004 31.672,19.944 L31.996,18.684 C32.0440002,18.5399993 32.0799999,18.4200005 32.104,18.324 C32.1520002,18.2039994 32.1879999,18.0780007 32.212,17.946 C32.2360001,17.8139993 32.2719998,17.6760007 32.32,17.532 C32.3413253,17.4722892 32.3626505,17.4110628 32.3839757,17.3483206 Z M32.7530288,16.1386283 C32.8006858,15.982457 32.8483427,15.8289149 32.896,15.678 C32.9680004,15.4499989 33.0279998,15.2160012 33.076,14.976 C33.1720005,14.7119987 33.2559996,14.4420014 33.328,14.166 C33.4000004,13.8899986 33.4719996,13.6200013 33.544,13.356 L34.048,11.664 C34.1440005,11.3999987 34.2279996,11.1240014 34.3,10.836 C34.3720004,10.5479986 34.4559995,10.2600014 34.552,9.972 L35.02,8.352 C35.0920004,8.1119988 35.1639996,7.87800114 35.236,7.65 C35.3080004,7.42199886 35.3799996,7.17600132 35.452,6.912 C35.5000002,6.71999904 35.5539997,6.52200102 35.614,6.318 C35.6740003,6.11399898 35.7399996,5.91600096 35.812,5.724 C35.8143556,5.71390437 35.8167207,5.70380874 35.8190953,5.69371312 C35.4567306,5.73039434 35.0943671,5.76448982 34.732,5.796 C34.6119994,5.82000012 34.5100004,5.83799994 34.426,5.85 C34.3419996,5.86200006 34.2400006,5.868 34.12,5.868 L34.048,5.904 C33.9279994,5.904 33.8020007,5.90999994 33.67,5.922 C33.5379993,5.93400006 33.4000007,5.95199988 33.256,5.976 L32.176,6.084 L31.888,7.164 C31.7919995,7.5240018 31.6840006,7.8839982 31.564,8.244 C31.4439994,8.65200204 31.3300005,9.04199814 31.222,9.414 C31.1139995,9.78600186 31.0000006,10.175998 30.88,10.584 C30.8319998,10.7280007 30.7720004,10.9439986 30.7,11.232 C30.6519998,11.424001 30.5920004,11.6279989 30.52,11.844 C30.4479996,12.0600011 30.3880002,12.2879988 30.34,12.528 C30.2199994,12.936002 30.0940007,13.3919975 29.962,13.896 C29.8299993,14.4000025 29.6800008,14.9639969 29.512,15.588 C29.2239986,16.596005 28.9720011,17.5319957 28.756,18.396 C28.563999,19.1400037 28.3960007,19.8539966 28.252,20.538 C28.1079993,21.2220034 28.0479999,21.6839988 28.072,21.924 C28.2160007,21.7559992 28.383999,21.5580011 28.576,21.33 C28.768001,21.1019989 28.959999,20.8680012 29.152,20.628 C29.3680011,20.3639987 29.5959988,20.0880014 29.836,19.8 L32.68,16.236 L32.7530288,16.1386283 Z M21.16,19.692 C22.4080062,18.5879945 23.5119952,17.4000064 24.472,16.128 L24.148,16.128 C24.0519995,16.128 23.9680004,16.0680006 23.896,15.948 C23.9200001,15.8519995 23.9679996,15.7680004 24.04,15.696 C24.1600006,15.4799989 24.2559996,15.2640011 24.328,15.048 C24.4000004,14.8319989 24.4479999,14.5920013 24.472,14.328 C24.472,14.2079994 24.4660001,14.0760007 24.454,13.932 C24.4419999,13.7879993 24.3880005,13.6560006 24.292,13.536 C24.099999,13.5600001 23.9320007,13.6319994 23.788,13.752 L23.248,14.292 C22.9119983,14.700002 22.6240012,15.1139979 22.384,15.534 C22.1439988,15.9540021 21.928001,16.4039976 21.736,16.884 C21.5919993,17.2200017 21.4720005,17.5499984 21.376,17.874 C21.2799995,18.1980016 21.2080002,18.5399982 21.16,18.9 C21.1359999,19.1400012 21.1359999,19.4039986 21.16,19.692 Z M53.128,0.54 C53.320001,0.70800084 53.4040001,0.9119988 53.38,1.152 C53.3319998,1.29600072 53.3020001,1.43999928 53.29,1.584 C53.2779999,1.72800072 53.2600001,1.87199928 53.236,2.016 L53.164,2.664 C53.1399999,2.88000108 53.1040002,3.08399904 53.056,3.276 C53.056,3.46800096 52.9840007,3.52800036 52.84,3.456 C52.6719992,3.3359994 52.5999999,3.20400072 52.624,3.06 L52.624,2.34 C52.5999999,2.43600048 52.5640002,2.53199952 52.516,2.628 C52.1319981,3.4680042 51.7720017,4.31399574 51.436,5.166 C51.0999983,6.01800426 50.7760016,6.88799556 50.464,7.776 C49.8879971,9.38400804 49.3240028,10.9979919 48.772,12.618 C48.2199972,14.2380081 47.6800026,15.8759917 47.152,17.532 L46.828,18.468 L46.54,19.368 C46.4439995,19.7280014 46.3540004,20.0159986 46.27,20.304 C46.1859996,20.5920014 46.0840006,20.8799986 45.964,21.168 C45.363997,23.1120097 44.764003,25.0499903 44.164,26.982 C43.563997,28.9140097 42.9880028,30.8519903 42.436,32.796 C42.3159994,33.204002 42.2080005,33.5999981 42.112,33.984 C42.0159995,34.3680019 41.9080006,34.763998 41.788,35.172 C41.7399998,35.3400008 41.6860003,35.4479998 41.626,35.496 C41.5659997,35.5440002 41.4640007,35.5919998 41.32,35.64 L41.104,35.64 C40.8399987,35.6159999 40.7439996,35.4600014 40.816,35.172 C40.9360006,34.6919976 41.0619993,34.2120024 41.194,33.732 C41.3260007,33.2519976 41.4519994,32.7720024 41.572,32.292 C42.1480029,30.1559893 42.7479969,28.0500104 43.372,25.974 C43.9960031,23.8979896 44.6199969,21.8040106 45.244,19.692 C45.2680001,19.6439998 45.28,19.5900003 45.28,19.53 C45.28,19.4699997 45.3039998,19.4040004 45.352,19.332 C45.159999,19.3560001 44.9860008,19.3739999 44.83,19.386 C44.6739992,19.3980001 44.500001,19.404 44.308,19.404 C43.9719983,19.4520002 43.6300017,19.4879999 43.282,19.512 C42.9339983,19.5360001 42.5920017,19.5599999 42.256,19.584 C41.9919987,19.6080001 41.7460011,19.6259999 41.518,19.638 C41.2899989,19.6500001 41.0440013,19.6679999 40.78,19.692 C40.6599994,19.7160001 40.5940001,19.7339999 40.582,19.746 C40.5699999,19.7580001 40.5400002,19.8239994 40.492,19.944 C39.9159971,21.9120098 39.3400029,23.8739902 38.764,25.83 C38.1879971,27.7860098 37.6360026,29.75999 37.108,31.752 C36.9879994,32.160002 36.8860004,32.5559981 36.802,32.94 C36.7179996,33.3240019 36.6280005,33.719998 36.532,34.128 C36.5079999,34.2000004 36.496,34.3199992 36.496,34.488 C36.4479998,34.6560008 36.3760005,34.7519999 36.28,34.776 C36.0399988,34.8960006 35.824001,34.9200004 35.632,34.848 C35.4879993,34.7999998 35.4279999,34.680001 35.452,34.488 C35.4760001,34.295999 35.4999999,34.1220008 35.524,33.966 C35.5480001,33.8099992 35.5839998,33.636001 35.632,33.444 C36.040002,31.8599921 36.447998,30.2880078 36.856,28.728 C37.264002,27.1679922 37.6839978,25.5960079 38.116,24.012 L40.096,16.848 C40.288001,16.1759966 40.4739991,15.5160032 40.654,14.868 C40.8340009,14.2199968 41.019999,13.5600034 41.212,12.888 C41.7160025,11.2079916 42.2439972,9.54600822 42.796,7.902 C43.3480028,6.25799178 43.9479968,4.62000816 44.596,2.988 C44.7640008,2.53199772 44.9679988,2.05200252 45.208,1.548 C45.3040005,1.28399868 45.4599989,1.19999952 45.676,1.296 C45.9640014,1.4160006 46.0720004,1.61999856 46,1.908 C45.9519998,2.17200132 45.8920004,2.42999874 45.82,2.682 C45.7479996,2.93400126 45.6760004,3.19199868 45.604,3.456 C45.2679983,4.51200528 44.9380016,5.55599484 44.614,6.588 C44.2899984,7.62000516 43.9600017,8.66399472 43.624,9.72 C43.1439976,11.2560077 42.6700023,12.7859924 42.202,14.31 C41.7339977,15.8340076 41.2600024,17.3639923 40.78,18.9 C40.78,18.9480002 40.7740001,18.9899998 40.762,19.026 C40.7499999,19.0620002 40.744,19.1039998 40.744,19.152 C40.7920002,19.152 41.0259979,19.1460001 41.446,19.134 C41.8660021,19.1219999 42.3399974,19.0980002 42.868,19.062 C43.3960026,19.0259998 43.9119975,18.9840002 44.416,18.936 C44.9200025,18.8879998 45.2799989,18.8520001 45.496,18.828 C45.5440002,18.6599992 45.5919998,18.5040007 45.64,18.36 C45.6880002,18.2159993 45.7359998,18.0600008 45.784,17.892 L46.864,14.364 C47.2240018,13.1879941 47.607998,12.0120059 48.016,10.836 C48.3760018,9.73199448 48.753998,8.6400054 49.15,7.56 C49.546002,6.4799946 49.9839976,5.4000054 50.464,4.32 C50.7040012,3.81599748 50.9439988,3.31800246 51.184,2.826 C51.4240012,2.33399754 51.6759987,1.8480024 51.94,1.368 C52.0600006,1.15199892 52.1799994,0.96000084 52.3,0.792 C52.4440007,0.57599892 52.5879993,0.43200036 52.732,0.36 L52.804,0.36 C52.8520002,0.40800024 52.9059997,0.43799994 52.966,0.45 C53.0260003,0.46200006 53.0799998,0.49199976 53.128,0.54 Z M49.888,19.692 C51.1360062,18.5879945 52.2399952,17.4000064 53.2,16.128 L52.876,16.128 C52.7799995,16.128 52.6960004,16.0680006 52.624,15.948 C52.6480001,15.8519995 52.6959996,15.7680004 52.768,15.696 C52.8880006,15.4799989 52.9839996,15.2640011 53.056,15.048 C53.1280004,14.8319989 53.1759999,14.5920013 53.2,14.328 C53.2,14.2079994 53.1940001,14.0760007 53.182,13.932 C53.1699999,13.7879993 53.1160005,13.6560006 53.02,13.536 C52.827999,13.5600001 52.6600007,13.6319994 52.516,13.752 L51.976,14.292 C51.6399983,14.700002 51.3520012,15.1139979 51.112,15.534 C50.8719988,15.9540021 50.656001,16.4039976 50.464,16.884 C50.3199993,17.2200017 50.2000005,17.5499984 50.104,17.874 C50.0079995,18.1980016 49.9360002,18.5399982 49.888,18.9 C49.8639999,19.1400012 49.8639999,19.4039986 49.888,19.692 Z M70.912,19.944 C70.9360001,19.8959998 70.9779997,19.8180005 71.038,19.71 C71.0980003,19.6019995 71.128,19.5360001 71.128,19.512 C71.0559996,19.5600002 70.9840004,19.6199996 70.912,19.692 C70.8399996,19.7400002 70.7680004,19.7999996 70.696,19.872 C70.6239996,19.9440004 70.5280006,20.0159996 70.408,20.088 C70.3599998,20.1360002 70.3120002,20.1719999 70.264,20.196 C70.2159998,20.2440002 70.1620003,20.2919998 70.102,20.34 C70.0419997,20.3880002 69.9880002,20.4359998 69.94,20.484 C69.6039983,20.7720014 69.2980014,21.0539986 69.022,21.33 L68.32,22.032 C68.0799988,22.2960013 67.8880007,22.523999 67.744,22.716 C67.6479995,22.8360006 67.5700003,22.9439995 67.51,23.04 C67.4499997,23.1360005 67.4439998,23.2079998 67.492,23.256 C67.5160001,23.256 67.5639996,23.2440001 67.636,23.22 C67.7080004,23.1959999 67.8519989,23.1240006 68.068,23.004 C68.3320013,22.8359992 68.5719989,22.656001 68.788,22.464 L69.436,21.888 C69.436,21.8639999 69.4479999,21.8400001 69.472,21.816 L69.508,21.816 C69.916002,21.407998 70.221999,21.0480016 70.426,20.736 C70.630001,20.4239984 70.7919994,20.172001 70.912,19.98 L70.912,19.944 Z" id="MathHacks" fill="#000000"></path>
    </g>
</svg>
